<svg xmlns="http://www.w3.org/2000/svg" xmlns:xlink="http://www.w3.org/1999/xlink" width="500" zoomAndPan="magnify" viewBox="0 0 375 374.999991" height="500" preserveAspectRatio="xMidYMid meet" version="1.0"><defs><g/><clipPath id="e701a84b4b"><path d="M 254.65625 147 L 333 147 L 333 152 L 254.65625 152 Z M 254.65625 147 " clip-rule="nonzero"/></clipPath><clipPath id="4b128b5a45"><path d="M 41.480469 146 L 120.230469 146 L 120.230469 152 L 41.480469 152 Z M 41.480469 146 " clip-rule="nonzero"/></clipPath><clipPath id="9cd4d32661"><path d="M 1 1 L 79.230469 1 L 79.230469 5.921875 L 1 5.921875 Z M 1 1 " clip-rule="nonzero"/></clipPath><clipPath id="358b405e3d"><rect x="0" width="80" y="0" height="6"/></clipPath><clipPath id="e303077eac"><path d="M 42.234375 74 L 332.484375 74 L 332.484375 130.980469 L 42.234375 130.980469 Z M 42.234375 74 " clip-rule="nonzero"/></clipPath></defs><path fill="#ffffff" d="M 328.785156 220.347656 C 328.460938 220.15625 328.089844 220.050781 327.707031 220.023438 C 308.015625 218.898438 295.476562 218.957031 276.496094 219.03125 C 271.453125 219.046875 265.75 219.078125 259.347656 219.078125 L 229.144531 219.078125 C 229.144531 219.078125 227.3125 219.089844 227.3125 219.089844 C 227.296875 219.078125 227.28125 219.046875 227.253906 219.03125 C 222.847656 214.285156 216.445312 217.671875 212.011719 220.628906 C 211.035156 221.277344 210 222.019531 208.921875 222.832031 C 207 222.3125 205.003906 221.308594 203.300781 220.464844 C 200.597656 219.105469 198.792969 218.21875 197.492188 219.03125 C 197.050781 219.296875 196.53125 219.875 196.53125 221.085938 C 196.53125 222.402344 197.050781 224.28125 199.488281 225.730469 C 200.523438 226.351562 201.855469 226.851562 203.464844 227.238281 C 198.792969 231.167969 193.441406 236.078125 187.441406 241.652344 C 181.4375 236.078125 176.085938 231.183594 171.414062 227.238281 C 173.027344 226.851562 174.355469 226.351562 175.375 225.730469 C 177.816406 224.28125 178.332031 222.402344 178.332031 221.085938 C 178.332031 219.875 177.800781 219.296875 177.371094 219.03125 C 176.054688 218.21875 174.265625 219.121094 171.5625 220.464844 C 169.863281 221.324219 167.851562 222.3125 165.945312 222.832031 C 164.863281 222.019531 163.832031 221.277344 162.855469 220.628906 C 158.417969 217.671875 152.019531 214.285156 147.613281 219.03125 C 147.597656 219.046875 147.582031 219.078125 147.554688 219.089844 L 145.71875 219.089844 C 145.71875 219.089844 115.515625 219.078125 115.515625 219.078125 C 109.132812 219.078125 103.410156 219.046875 98.367188 219.03125 C 79.386719 218.941406 66.851562 218.898438 47.15625 220.023438 C 46.757812 220.050781 46.402344 220.15625 46.078125 220.347656 C 42.945312 222.210938 45.695312 230.695312 47.011719 233.816406 C 47.808594 235.707031 48.472656 236.890625 48.503906 236.933594 L 48.828125 237.511719 L 49.492188 237.511719 C 49.90625 237.511719 91.316406 237.46875 103.4375 237.480469 C 107.328125 237.480469 114.304688 237.199219 114.378906 237.199219 L 115.5625 237.15625 L 115.457031 235.988281 C 115.457031 235.988281 115.265625 233.609375 115.769531 231.910156 C 116.183594 230.519531 116.804688 229.367188 117.171875 228.757812 C 128.421875 228.757812 137.410156 228.597656 145.367188 228.449219 C 146.265625 228.433594 147.140625 228.417969 148.011719 228.40625 C 148.914062 229.574219 150.140625 230.875 151.753906 232.351562 C 154.429688 234.835938 157.886719 237.644531 162.292969 241.191406 C 166.269531 244.402344 170.808594 248.082031 175.878906 252.429688 C 174.679688 253.535156 173.5 254.628906 172.359375 255.695312 C 170.824219 257.113281 169.34375 258.488281 167.894531 259.820312 C 157.578125 269.398438 149.296875 277.191406 144.582031 283.238281 C 141.300781 287.4375 137.441406 293.570312 141.832031 298.316406 C 143.652344 300.28125 145.839844 300.875 148.308594 300.089844 C 150.257812 299.453125 152.445312 297.960938 155.402344 295.210938 C 158.078125 292.726562 161.140625 289.492188 165.011719 285.378906 C 170.824219 279.214844 178.023438 271.574219 187.453125 262.792969 C 196.886719 271.574219 204.085938 279.214844 209.894531 285.378906 C 213.769531 289.492188 216.828125 292.742188 219.503906 295.210938 C 222.460938 297.960938 224.648438 299.453125 226.601562 300.089844 C 229.070312 300.890625 231.242188 300.296875 233.078125 298.316406 C 237.46875 293.570312 233.625 287.4375 230.328125 283.238281 C 225.609375 277.207031 217.332031 269.398438 207.011719 259.820312 C 205.578125 258.488281 204.085938 257.113281 202.546875 255.695312 C 201.394531 254.628906 200.226562 253.550781 199.03125 252.429688 C 204.101562 248.097656 208.640625 244.414062 212.617188 241.191406 C 217.007812 237.644531 220.480469 234.835938 223.15625 232.351562 C 224.769531 230.859375 225.996094 229.574219 226.898438 228.40625 C 227.753906 228.417969 228.640625 228.433594 229.542969 228.449219 C 237.496094 228.597656 246.484375 228.757812 257.734375 228.757812 C 258.105469 229.378906 258.742188 230.535156 259.140625 231.910156 C 259.65625 233.609375 259.449219 235.972656 259.449219 235.988281 L 259.347656 237.15625 L 260.53125 237.199219 C 260.53125 237.199219 267.582031 237.480469 271.46875 237.480469 C 283.59375 237.480469 325 237.511719 325.414062 237.511719 L 326.082031 237.511719 L 326.40625 236.933594 C 326.40625 236.933594 327.101562 235.691406 327.898438 233.816406 C 329.214844 230.695312 331.964844 222.210938 328.832031 220.347656 Z M 202.445312 225.816406 C 201.515625 225.523438 200.714844 225.183594 200.050781 224.78125 C 198.46875 223.835938 197.640625 222.625 197.640625 221.101562 C 197.640625 220.851562 197.671875 220.644531 197.730469 220.464844 C 197.789062 220.304688 197.863281 220.171875 197.980469 220.066406 C 198.425781 219.683594 199.265625 219.875 200.359375 220.332031 C 200.640625 220.449219 200.921875 220.585938 201.234375 220.71875 C 201.378906 220.792969 201.542969 220.863281 201.707031 220.9375 C 202.03125 221.085938 202.355469 221.265625 202.695312 221.425781 C 202.875 221.515625 203.035156 221.605469 203.214844 221.691406 C 203.921875 222.046875 204.664062 222.417969 205.429688 222.757812 C 205.625 222.847656 205.816406 222.921875 206.007812 223.007812 C 206.597656 223.261719 207.207031 223.496094 207.8125 223.6875 C 207.632812 223.820312 207.457031 223.96875 207.28125 224.101562 C 205.609375 223.527344 203.96875 222.699219 202.535156 221.988281 C 200.90625 221.175781 198.867188 220.15625 198.363281 220.480469 C 198.261719 220.539062 198.203125 220.777344 198.203125 221.101562 C 198.203125 222.402344 198.898438 223.453125 200.332031 224.292969 C 201.484375 224.976562 203.066406 225.507812 205.078125 225.875 C 204.898438 226.023438 204.707031 226.1875 204.515625 226.335938 C 203.761719 226.1875 203.066406 226.011719 202.429688 225.804688 Z M 168.828125 223.007812 C 169.019531 222.921875 169.210938 222.847656 169.402344 222.757812 C 170.171875 222.417969 170.910156 222.046875 171.621094 221.691406 C 171.796875 221.605469 171.976562 221.515625 172.140625 221.425781 C 172.480469 221.265625 172.820312 221.085938 173.128906 220.9375 C 173.292969 220.863281 173.441406 220.792969 173.601562 220.71875 C 173.914062 220.570312 174.195312 220.4375 174.472656 220.332031 C 175.582031 219.875 176.410156 219.695312 176.855469 220.066406 C 176.957031 220.15625 177.046875 220.289062 177.105469 220.464844 C 177.164062 220.644531 177.195312 220.851562 177.195312 221.101562 C 177.195312 222.625 176.382812 223.851562 174.800781 224.78125 C 174.132812 225.183594 173.335938 225.523438 172.40625 225.816406 C 171.769531 226.023438 171.074219 226.1875 170.320312 226.351562 C 170.128906 226.1875 169.949219 226.039062 169.757812 225.890625 C 171.769531 225.523438 173.351562 224.988281 174.503906 224.308594 C 175.9375 223.46875 176.632812 222.417969 176.632812 221.117188 C 176.632812 220.792969 176.574219 220.554688 176.46875 220.496094 C 175.953125 220.171875 173.925781 221.191406 172.285156 222.003906 C 170.851562 222.726562 169.210938 223.539062 167.539062 224.117188 C 167.363281 223.984375 167.1875 223.835938 167.007812 223.703125 C 167.613281 223.511719 168.222656 223.273438 168.8125 223.023438 Z M 116.523438 227.621094 C 116.523438 227.621094 115.503906 229.054688 114.808594 231.082031 C 114.71875 231.496094 114.628906 231.921875 114.570312 232.351562 C 114.394531 233.5625 114.347656 234.804688 114.304688 236.078125 C 114.304688 236.078125 110.800781 236.328125 106.144531 236.328125 C 105.167969 236.34375 104.222656 236.359375 103.410156 236.359375 C 91.152344 236.359375 49.464844 236.386719 49.464844 236.386719 C 49.464844 236.386719 48.8125 235.21875 48.03125 233.371094 C 47.570312 232.277344 47.128906 231.019531 46.757812 229.765625 C 45.738281 226.734375 45.339844 223.480469 46.078125 221.988281 C 46.109375 221.914062 46.152344 221.839844 46.195312 221.765625 C 46.195312 221.753906 46.226562 221.738281 46.226562 221.722656 C 46.269531 221.648438 46.332031 221.574219 46.402344 221.515625 C 46.402344 221.515625 46.402344 221.515625 46.417969 221.484375 C 46.492188 221.410156 46.566406 221.351562 46.640625 221.308594 C 46.804688 221.203125 46.996094 221.144531 47.21875 221.144531 C 72.128906 219.726562 85.152344 220.183594 115.515625 220.214844 C 128.585938 220.214844 140.207031 220.230469 146.695312 220.242188 C 146.578125 220.4375 146.472656 220.613281 146.386719 220.804688 L 145.277344 220.804688 C 145.277344 220.804688 141.535156 226.75 141.535156 226.75 C 142.75 226.75 143.929688 226.71875 145.097656 226.703125 C 145.691406 226.703125 146.265625 226.703125 146.828125 226.691406 C 146.949219 226.898438 147.066406 227.089844 147.199219 227.296875 C 138.90625 227.445312 128.984375 227.636719 116.539062 227.636719 Z M 178.390625 254.628906 C 180.683594 256.625 183.078125 258.753906 185.5625 261.046875 C 185.25 261.34375 184.925781 261.636719 184.617188 261.933594 C 179.5 262.066406 174.265625 262.421875 169.152344 263.058594 Z M 157.457031 273.730469 L 166.800781 265.199219 C 171.917969 264.683594 177.222656 264.269531 182.488281 263.960938 C 179.78125 266.546875 177.105469 269.179688 174.503906 271.867188 C 172.613281 273.820312 170.71875 275.785156 168.871094 277.78125 C 168.753906 277.914062 168.621094 278.046875 168.5 278.179688 C 163.976562 277.308594 159.367188 276.628906 154.84375 276.214844 C 155.714844 275.386719 156.585938 274.558594 157.472656 273.746094 Z M 154.222656 293.941406 C 149.089844 298.6875 145.824219 300.148438 143.03125 297.132812 C 142.246094 296.144531 141.773438 294.945312 141.773438 293.75 C 141.757812 292.535156 142.128906 291.367188 142.660156 290.273438 C 142.925781 289.742188 143.222656 289.210938 143.53125 288.691406 C 141.609375 292.195312 141.609375 294.753906 143.445312 296.734375 C 144.671875 298.066406 145.941406 298.417969 147.582031 297.886719 C 149.179688 297.371094 151.175781 295.980469 153.835938 293.496094 C 155.152344 292.285156 156.570312 290.867188 158.136719 289.238281 C 153.851562 287.996094 149.460938 286.992188 145.144531 286.355469 C 145.691406 285.648438 146.28125 284.953125 146.875 284.273438 C 148.5 282.410156 150.230469 280.621094 152.019531 278.875 C 152.210938 278.683594 152.417969 278.492188 152.609375 278.300781 C 157.074219 278.742188 161.730469 279.511719 166.3125 280.488281 C 165.308594 281.582031 164.316406 282.675781 163.328125 283.769531 C 167.140625 279.882812 170.925781 275.976562 174.785156 272.148438 C 178.453125 268.511719 182.160156 264.90625 185.945312 261.386719 C 186.019531 261.445312 186.078125 261.519531 186.152344 261.578125 C 170.496094 276.15625 160.816406 287.777344 154.191406 293.910156 Z M 146 290.9375 C 146.578125 290.390625 147.496094 290.4375 148.042969 291.011719 C 148.589844 291.589844 148.542969 292.507812 147.96875 293.054688 C 147.390625 293.601562 146.472656 293.554688 145.925781 292.980469 C 145.378906 292.402344 145.425781 291.488281 146 290.9375 Z M 208.035156 265.199219 L 217.375 273.730469 C 218.261719 274.542969 219.136719 275.371094 220.007812 276.199219 C 215.484375 276.613281 210.855469 277.308594 206.347656 278.167969 C 206.230469 278.035156 206.097656 277.898438 205.976562 277.765625 C 204.117188 275.785156 202.238281 273.804688 200.347656 271.855469 C 197.730469 269.164062 195.066406 266.546875 192.363281 263.945312 C 197.625 264.253906 202.933594 264.667969 208.046875 265.1875 Z M 205.683594 263.058594 C 200.554688 262.40625 195.335938 262.066406 190.21875 261.933594 C 189.910156 261.636719 189.597656 261.34375 189.273438 261.046875 C 189.066406 260.855469 188.859375 260.664062 188.652344 260.457031 C 188.445312 260.261719 188.238281 260.070312 188.03125 259.894531 C 187.957031 259.835938 187.882812 259.761719 187.824219 259.703125 C 187.691406 259.582031 187.558594 259.449219 187.410156 259.332031 C 185.042969 257.171875 182.648438 255.042969 180.226562 252.945312 C 179.367188 252.207031 178.511719 251.46875 177.652344 250.742188 C 177.238281 250.386719 176.808594 250.03125 176.394531 249.679688 C 174.296875 247.933594 172.199219 246.203125 170.082031 244.503906 C 167.953125 242.820312 165.824219 241.117188 163.667969 239.460938 C 167.820312 242.980469 172.003906 246.457031 176.128906 250.019531 C 176.53125 250.375 176.929688 250.714844 177.34375 251.066406 C 178.199219 251.808594 179.042969 252.546875 179.898438 253.300781 C 182.308594 255.414062 184.691406 257.558594 187.039062 259.730469 C 187.171875 259.847656 187.308594 259.984375 187.453125 260.117188 C 187.527344 260.175781 187.585938 260.25 187.660156 260.308594 C 187.882812 260.515625 188.089844 260.707031 188.3125 260.914062 C 188.503906 261.089844 188.710938 261.285156 188.902344 261.460938 C 192.703125 264.980469 196.398438 268.570312 200.078125 272.222656 C 203.9375 276.050781 207.722656 279.96875 211.535156 283.84375 C 210.546875 282.75 209.542969 281.640625 208.550781 280.5625 C 213.132812 279.601562 217.789062 278.816406 222.253906 278.375 C 222.449219 278.566406 222.65625 278.757812 222.847656 278.949219 C 224.636719 280.695312 226.363281 282.46875 227.992188 284.347656 C 228.582031 285.027344 229.175781 285.722656 229.722656 286.429688 C 225.402344 287.066406 221.011719 288.085938 216.726562 289.3125 C 218.292969 290.9375 219.710938 292.359375 221.027344 293.570312 C 223.703125 296.054688 225.683594 297.445312 227.296875 297.960938 C 228.921875 298.480469 230.207031 298.125 231.4375 296.808594 C 233.269531 294.828125 233.269531 292.253906 231.347656 288.765625 C 231.65625 289.285156 231.953125 289.800781 232.21875 290.347656 C 232.738281 291.441406 233.121094 292.609375 233.105469 293.820312 C 233.105469 295.019531 232.632812 296.230469 231.851562 297.207031 C 229.054688 300.207031 225.773438 298.761719 220.660156 294.015625 C 214.050781 287.878906 204.351562 276.257812 188.695312 261.683594 C 188.503906 261.503906 188.3125 261.328125 188.121094 261.152344 C 187.898438 260.945312 187.675781 260.738281 187.453125 260.53125 C 187.378906 260.46875 187.320312 260.394531 187.246094 260.335938 C 187.113281 260.203125 186.964844 260.085938 186.832031 259.953125 C 184.363281 257.675781 181.96875 255.546875 179.679688 253.550781 C 178.804688 252.796875 177.949219 252.058594 177.105469 251.335938 C 166.375 242.140625 157.945312 235.886719 152.890625 231.183594 C 151.824219 230.207031 150.925781 229.292969 150.171875 228.433594 C 149.832031 228.050781 149.535156 227.679688 149.253906 227.324219 C 149.105469 227.117188 148.957031 226.925781 148.824219 226.734375 C 147.300781 224.5 147.082031 222.652344 148.367188 220.878906 C 148.5 220.6875 148.664062 220.511719 148.824219 220.316406 C 148.824219 220.316406 148.855469 220.289062 148.855469 220.273438 C 149.34375 219.816406 149.890625 219.445312 150.480469 219.195312 C 151.011719 218.957031 151.574219 218.808594 152.136719 218.765625 C 153.335938 218.664062 154.53125 218.941406 155.65625 219.386719 C 156.1875 219.59375 156.703125 219.84375 157.222656 220.097656 C 154.976562 219.089844 153.128906 218.78125 151.617188 219.179688 C 150.863281 219.386719 150.199219 219.757812 149.59375 220.304688 C 149.476562 220.40625 149.355469 220.523438 149.253906 220.644531 C 149.179688 220.71875 149.121094 220.792969 149.0625 220.863281 C 147.671875 222.519531 147.746094 224.292969 149.492188 226.71875 C 149.625 226.910156 149.785156 227.105469 149.949219 227.3125 C 150.230469 227.664062 150.554688 228.035156 150.894531 228.417969 C 151.558594 229.144531 152.34375 229.925781 153.261719 230.769531 C 153.570312 231.050781 153.894531 231.347656 154.222656 231.640625 C 163.503906 234.9375 173.632812 238.648438 183.417969 242.449219 C 183.949219 242.953125 184.496094 243.46875 185.03125 243.972656 C 185.84375 244.742188 186.640625 245.496094 187.453125 246.261719 C 189.835938 248.511719 192.230469 250.757812 194.640625 252.988281 C 194.757812 253.109375 194.875 253.210938 195.007812 253.328125 C 195.066406 253.390625 195.140625 253.449219 195.199219 253.507812 L 195.246094 253.550781 L 196.503906 254.691406 L 205.742188 263.117188 Z M 228.90625 292.980469 C 228.359375 293.554688 227.457031 293.601562 226.867188 293.054688 C 226.292969 292.507812 226.246094 291.605469 226.792969 291.011719 C 227.339844 290.4375 228.242188 290.390625 228.832031 290.9375 C 229.410156 291.488281 229.453125 292.386719 228.90625 292.980469 Z M 155.507812 224.914062 C 154.960938 225.492188 154.058594 225.535156 153.46875 224.988281 C 152.890625 224.441406 152.847656 223.539062 153.394531 222.949219 C 153.941406 222.371094 154.84375 222.328125 155.433594 222.875 C 156.011719 223.421875 156.054688 224.324219 155.507812 224.914062 Z M 226.054688 226.644531 C 225.921875 226.835938 225.773438 227.042969 225.625 227.238281 C 225.359375 227.589844 225.050781 227.960938 224.710938 228.34375 C 223.957031 229.203125 223.039062 230.121094 221.988281 231.09375 C 216.917969 235.796875 208.507812 242.050781 197.773438 251.246094 C 197.683594 251.171875 197.609375 251.097656 197.523438 251.007812 C 197.921875 250.652344 198.320312 250.3125 198.71875 249.960938 C 202.828125 246.394531 207.011719 242.921875 211.183594 239.402344 C 209.023438 241.058594 206.894531 242.757812 204.765625 244.445312 C 202.652344 246.144531 200.539062 247.875 198.4375 249.621094 C 198.023438 249.972656 197.597656 250.328125 197.183594 250.683594 C 195.527344 249.144531 193.929688 247.667969 192.378906 246.21875 C 191.519531 245.421875 190.675781 244.636719 189.847656 243.867188 C 190.382812 243.367188 190.929688 242.847656 191.460938 242.34375 C 201.234375 238.546875 211.375 234.835938 220.660156 231.539062 C 220.984375 231.242188 221.308594 230.949219 221.621094 230.667969 C 222.535156 229.824219 223.320312 229.039062 223.984375 228.316406 C 224.339844 227.933594 224.648438 227.5625 224.929688 227.207031 C 225.09375 227 225.242188 226.808594 225.390625 226.617188 C 227.132812 224.191406 227.222656 222.417969 225.816406 220.761719 C 225.757812 220.6875 225.683594 220.613281 225.625 220.539062 C 225.507812 220.421875 225.402344 220.304688 225.285156 220.199219 C 224.679688 219.652344 224.015625 219.269531 223.261719 219.078125 C 221.753906 218.675781 219.917969 218.972656 217.671875 219.992188 C 218.191406 219.726562 218.707031 219.488281 219.238281 219.285156 C 220.363281 218.839844 221.558594 218.558594 222.757812 218.664062 C 223.320312 218.707031 223.882812 218.855469 224.414062 219.089844 C 225.003906 219.355469 225.550781 219.726562 226.039062 220.171875 C 226.039062 220.171875 226.070312 220.199219 226.070312 220.214844 C 226.246094 220.40625 226.394531 220.585938 226.527344 220.777344 C 227.8125 222.550781 227.59375 224.414062 226.070312 226.628906 Z M 219.402344 222.875 C 219.976562 222.328125 220.894531 222.371094 221.441406 222.949219 C 221.988281 223.527344 221.945312 224.441406 221.367188 224.988281 C 220.792969 225.535156 219.875 225.492188 219.328125 224.914062 C 218.78125 224.339844 218.824219 223.421875 219.402344 222.875 Z M 328.089844 229.75 C 327.722656 231.019531 327.277344 232.261719 326.820312 233.355469 C 326.035156 235.207031 325.386719 236.375 325.386719 236.375 C 325.386719 236.375 283.695312 236.328125 271.441406 236.34375 C 270.628906 236.34375 269.695312 236.34375 268.707031 236.3125 C 264.046875 236.3125 260.542969 236.0625 260.542969 236.0625 C 260.5 234.777344 260.457031 233.535156 260.277344 232.335938 C 260.21875 231.910156 260.128906 231.480469 260.042969 231.066406 C 259.347656 229.039062 258.328125 227.605469 258.328125 227.605469 C 245.878906 227.605469 235.960938 227.414062 227.679688 227.265625 C 227.8125 227.058594 227.933594 226.851562 228.050781 226.660156 C 228.625 226.660156 229.1875 226.660156 229.78125 226.675781 C 230.949219 226.675781 232.128906 226.703125 233.34375 226.71875 L 229.601562 220.777344 L 228.492188 220.777344 C 228.40625 220.585938 228.300781 220.40625 228.183594 220.214844 C 234.671875 220.214844 246.277344 220.214844 259.347656 220.183594 C 289.710938 220.171875 302.738281 219.695312 327.648438 221.117188 C 327.871094 221.117188 328.046875 221.191406 328.222656 221.277344 C 328.3125 221.324219 328.386719 221.382812 328.460938 221.457031 C 328.460938 221.457031 328.460938 221.472656 328.476562 221.484375 C 328.535156 221.546875 328.59375 221.617188 328.652344 221.691406 C 328.652344 221.707031 328.667969 221.722656 328.683594 221.738281 C 328.726562 221.8125 328.757812 221.871094 328.800781 221.960938 C 329.539062 223.453125 329.140625 226.703125 328.121094 229.734375 Z M 328.089844 229.75 " fill-opacity="1" fill-rule="nonzero"/><path fill="#ffffff" d="M 245.363281 220.792969 L 249.191406 226.898438 C 249.621094 226.898438 250.046875 226.898438 250.476562 226.898438 L 246.632812 220.792969 L 245.347656 220.792969 Z M 245.363281 220.792969 " fill-opacity="1" fill-rule="nonzero"/><path fill="#ffffff" d="M 327.929688 221.8125 C 327.839844 221.753906 327.734375 221.722656 327.617188 221.722656 C 307.96875 220.597656 295.464844 220.65625 276.511719 220.730469 C 271.46875 220.746094 265.75 220.777344 259.347656 220.792969 L 250.90625 220.792969 C 250.90625 220.792969 254.765625 226.925781 254.765625 226.925781 C 256.019531 226.925781 257.308594 226.925781 258.609375 226.925781 C 258.386719 226.421875 258.179688 225.9375 257.957031 225.433594 C 257.441406 224.292969 256.9375 223.140625 256.523438 221.914062 C 257.335938 222.90625 258.0625 223.941406 258.726562 225.019531 C 259.390625 226.097656 259.984375 227.238281 260.441406 228.464844 C 260.648438 229.070312 260.824219 229.707031 260.957031 230.339844 C 260.988281 230.546875 261.019531 230.769531 261.046875 230.976562 C 261.296875 232.203125 261.402344 233.726562 261.195312 235.574219 C 262.363281 235.648438 265.097656 235.78125 268.453125 235.78125 C 265.410156 235.070312 262.527344 233.609375 262.527344 233.609375 C 262.527344 233.609375 266.371094 233.710938 272.828125 233.84375 C 269.546875 233.636719 266.265625 233.402344 263 233.089844 C 268.160156 232.808594 273.304688 232.722656 278.433594 232.691406 C 281.003906 232.664062 283.578125 232.691406 286.136719 232.691406 C 288.707031 232.707031 291.265625 232.796875 293.835938 232.796875 L 301.539062 232.824219 C 304.113281 232.871094 306.683594 232.882812 309.242188 232.957031 C 314.386719 233.078125 319.515625 233.269531 324.660156 233.636719 C 321.75 233.859375 318.820312 234.023438 315.894531 234.15625 C 319.042969 234.140625 322.207031 234.097656 325.371094 234.050781 C 326.363281 232.722656 327.292969 230.710938 327.929688 228.375 C 328.933594 224.722656 328.667969 222.269531 327.914062 221.8125 Z M 309.257812 231.703125 C 304.113281 231.804688 298.96875 231.835938 293.824219 231.863281 C 288.679688 231.804688 283.53125 231.65625 278.402344 231.496094 C 273.257812 231.332031 268.128906 231.09375 263 230.785156 C 268.144531 230.652344 273.289062 230.59375 278.433594 230.621094 C 281.003906 230.621094 283.578125 230.652344 286.136719 230.667969 C 288.707031 230.695312 291.28125 230.753906 293.835938 230.753906 C 298.980469 230.753906 304.113281 230.753906 309.257812 230.84375 C 314.402344 230.902344 319.53125 231.035156 324.675781 231.242188 C 319.546875 231.480469 314.402344 231.628906 309.257812 231.714844 Z M 309.257812 229.792969 L 293.835938 229.898438 C 288.691406 229.824219 283.5625 229.707031 278.417969 229.585938 L 270.714844 229.378906 L 263.011719 229.113281 L 270.730469 229.113281 C 270.730469 229.113281 278.433594 229.171875 278.433594 229.171875 L 293.851562 229.367188 L 309.269531 229.394531 C 314.417969 229.425781 319.546875 229.46875 324.691406 229.574219 C 319.546875 229.707031 314.417969 229.765625 309.269531 229.824219 Z M 310.261719 222.90625 L 293.628906 222.816406 L 276.984375 222.726562 C 271.441406 222.699219 265.882812 222.625 260.335938 222.507812 C 263.117188 222.34375 265.882812 222.238281 268.660156 222.105469 C 271.441406 222.003906 274.203125 221.929688 276.984375 221.855469 C 279.761719 221.78125 282.527344 221.753906 285.308594 221.722656 L 293.628906 221.722656 C 299.175781 221.722656 304.734375 221.824219 310.277344 222.03125 C 315.820312 222.238281 321.378906 222.535156 326.894531 223.128906 C 321.351562 222.964844 315.792969 222.964844 310.246094 222.90625 Z M 310.261719 222.90625 " fill-opacity="1" fill-rule="nonzero"/><path fill="#ffffff" d="M 232.160156 220.792969 L 235.914062 226.765625 C 237.007812 226.765625 238.117188 226.792969 239.242188 226.792969 L 235.457031 220.777344 L 232.144531 220.777344 Z M 232.160156 220.792969 " fill-opacity="1" fill-rule="nonzero"/><path fill="#ffffff" d="M 221.085938 224.707031 C 221.5 224.324219 221.53125 223.675781 221.144531 223.261719 C 220.761719 222.847656 220.113281 222.816406 219.699219 223.199219 C 219.285156 223.585938 219.253906 224.234375 219.636719 224.648438 C 220.023438 225.0625 220.671875 225.09375 221.085938 224.707031 Z M 221.085938 224.707031 " fill-opacity="1" fill-rule="nonzero"/><path fill="#ffffff" d="M 147.6875 292.757812 C 148.101562 292.375 148.128906 291.722656 147.746094 291.308594 C 147.363281 290.894531 146.710938 290.867188 146.296875 291.25 C 145.882812 291.632812 145.851562 292.285156 146.238281 292.699219 C 146.621094 293.113281 147.273438 293.140625 147.6875 292.757812 Z M 147.6875 292.757812 " fill-opacity="1" fill-rule="nonzero"/><path fill="#ffffff" d="M 124.371094 226.898438 C 124.800781 226.898438 125.230469 226.898438 125.660156 226.898438 L 129.488281 220.792969 L 128.203125 220.792969 C 128.203125 220.792969 124.359375 226.898438 124.359375 226.898438 Z M 124.371094 226.898438 " fill-opacity="1" fill-rule="nonzero"/><path fill="#ffffff" d="M 98.355469 220.730469 C 79.402344 220.65625 66.878906 220.597656 47.246094 221.722656 C 47.128906 221.722656 47.023438 221.765625 46.9375 221.8125 C 46.167969 222.269531 45.917969 224.707031 46.90625 228.375 C 47.542969 230.710938 48.488281 232.722656 49.464844 234.050781 C 52.628906 234.109375 55.792969 234.140625 58.941406 234.15625 C 56.011719 234.023438 53.101562 233.859375 50.175781 233.636719 C 55.320312 233.269531 60.464844 233.078125 65.59375 232.957031 C 68.164062 232.882812 70.722656 232.871094 73.296875 232.824219 L 80.996094 232.796875 C 83.570312 232.796875 86.128906 232.722656 88.699219 232.691406 C 91.273438 232.691406 93.84375 232.648438 96.402344 232.691406 C 101.546875 232.722656 106.691406 232.808594 111.835938 233.089844 C 108.570312 233.417969 105.289062 233.652344 102.003906 233.84375 C 108.449219 233.710938 112.308594 233.609375 112.308594 233.609375 C 112.308594 233.609375 109.425781 235.085938 106.382812 235.78125 C 109.738281 235.78125 112.488281 235.632812 113.640625 235.574219 C 113.433594 233.726562 113.535156 232.203125 113.789062 230.976562 C 113.816406 230.769531 113.847656 230.546875 113.875 230.339844 C 114.007812 229.707031 114.1875 229.070312 114.394531 228.464844 C 114.851562 227.238281 115.429688 226.097656 116.109375 225.019531 C 116.773438 223.941406 117.5 222.90625 118.3125 221.914062 C 117.914062 223.128906 117.394531 224.292969 116.878906 225.433594 C 116.65625 225.9375 116.433594 226.421875 116.226562 226.925781 C 117.527344 226.925781 118.8125 226.925781 120.070312 226.925781 L 123.914062 220.804688 L 115.472656 220.804688 C 109.070312 220.804688 103.367188 220.777344 98.308594 220.746094 Z M 96.460938 231.480469 C 91.316406 231.65625 86.1875 231.789062 81.042969 231.847656 C 75.898438 231.820312 70.753906 231.789062 65.609375 231.6875 C 60.464844 231.597656 55.320312 231.433594 50.1875 231.214844 C 55.332031 231.007812 60.476562 230.875 65.609375 230.8125 C 70.753906 230.742188 75.882812 230.726562 81.027344 230.726562 C 83.601562 230.726562 86.171875 230.652344 88.730469 230.636719 C 91.300781 230.636719 93.875 230.59375 96.445312 230.59375 C 101.589844 230.578125 106.722656 230.636719 111.867188 230.753906 C 106.734375 231.066406 101.589844 231.300781 96.460938 231.464844 Z M 104.164062 229.351562 L 96.460938 229.558594 C 91.316406 229.691406 86.1875 229.792969 81.042969 229.867188 L 65.621094 229.765625 C 60.476562 229.707031 55.347656 229.648438 50.203125 229.511719 C 55.347656 229.410156 60.476562 229.367188 65.621094 229.335938 L 81.042969 229.304688 L 96.460938 229.113281 L 104.164062 229.054688 L 111.878906 229.054688 C 111.878906 229.054688 104.179688 229.335938 104.179688 229.335938 Z M 97.878906 222.726562 L 81.234375 222.816406 L 64.601562 222.90625 C 59.058594 222.964844 53.515625 222.964844 47.957031 223.125 C 53.484375 222.535156 59.03125 222.226562 64.574219 222.03125 C 70.117188 221.824219 75.675781 221.722656 81.21875 221.707031 L 89.542969 221.707031 C 92.320312 221.765625 95.085938 221.796875 97.867188 221.871094 C 100.644531 221.945312 103.410156 222.019531 106.1875 222.121094 C 108.96875 222.253906 111.734375 222.359375 114.511719 222.519531 C 108.953125 222.652344 103.410156 222.726562 97.867188 222.742188 Z M 97.878906 222.726562 " fill-opacity="1" fill-rule="nonzero"/><path fill="#ffffff" d="M 139.378906 220.792969 L 135.59375 226.808594 C 136.730469 226.808594 137.839844 226.792969 138.921875 226.777344 L 142.675781 220.804688 L 139.363281 220.804688 Z M 139.378906 220.792969 " fill-opacity="1" fill-rule="nonzero"/><path fill="#ffffff" d="M 153.761719 224.707031 C 154.175781 225.09375 154.828125 225.0625 155.210938 224.648438 C 155.597656 224.234375 155.566406 223.585938 155.152344 223.199219 C 154.738281 222.816406 154.089844 222.847656 153.703125 223.261719 C 153.320312 223.675781 153.347656 224.324219 153.761719 224.707031 Z M 153.761719 224.707031 " fill-opacity="1" fill-rule="nonzero"/><path fill="#ffffff" d="M 227.164062 292.757812 C 227.578125 293.140625 228.226562 293.113281 228.613281 292.699219 C 228.996094 292.285156 228.96875 291.632812 228.554688 291.25 C 228.140625 290.867188 227.488281 290.894531 227.105469 291.308594 C 226.71875 291.722656 226.75 292.375 227.164062 292.757812 Z M 227.164062 292.757812 " fill-opacity="1" fill-rule="nonzero"/><g clip-path="url(#e701a84b4b)"><path fill="#ffffff" d="M 264.628906 147.425781 C 263.058594 148.351562 259.132812 148.9375 255.535156 149.285156 C 254.976562 149.339844 254.410156 149.390625 253.832031 149.4375 C 254.410156 149.484375 254.976562 149.535156 255.535156 149.589844 C 259.128906 149.9375 263.058594 150.523438 264.628906 151.449219 C 275.953125 150.390625 306.511719 149.777344 332.789062 149.4375 C 306.511719 149.097656 275.949219 148.484375 264.628906 147.425781 Z M 264.628906 147.425781 " fill-opacity="1" fill-rule="evenodd"/></g><g clip-path="url(#4b128b5a45)"><g transform="matrix(1, 0, 0, 1, 41, 146)"><g clip-path="url(#358b405e3d)"><g clip-path="url(#9cd4d32661)"><path fill="#ffffff" d="M 69.363281 1.425781 C 70.933594 2.351562 74.859375 2.9375 78.457031 3.285156 C 79.015625 3.339844 79.585938 3.390625 80.160156 3.4375 C 79.585938 3.484375 79.015625 3.535156 78.457031 3.589844 C 74.863281 3.9375 70.933594 4.523438 69.363281 5.449219 C 58.039062 4.390625 27.480469 3.777344 1.203125 3.4375 C 27.480469 3.097656 58.042969 2.484375 69.363281 1.425781 Z M 69.363281 1.425781 " fill-opacity="1" fill-rule="evenodd"/></g></g></g></g><g clip-path="url(#e303077eac)"><path fill="#ffffff" d="M 187.433594 130.945312 C 195.101562 130.945312 187.433594 112.515625 187.433594 112.515625 C 187.433594 112.515625 179.765625 130.945312 187.433594 130.945312 Z M 187.433594 103.027344 C 194.816406 86.011719 207.460938 88.519531 207.460938 88.519531 C 206.578125 85.652344 202.9375 85.476562 202.9375 85.476562 C 194.835938 79.746094 189.847656 94.25 189.847656 94.25 C 190.332031 86.550781 196.390625 81.894531 196.390625 81.894531 C 194.820312 80.28125 190.796875 81.894531 190.796875 81.894531 C 190.796875 81.894531 192.050781 74.015625 187.433594 74.015625 C 182.816406 74.015625 184.066406 81.894531 184.066406 81.894531 C 184.066406 81.894531 180.042969 80.28125 178.472656 81.894531 C 178.472656 81.894531 184.535156 86.550781 185.019531 94.25 C 185.019531 94.25 180.03125 79.746094 171.929688 85.476562 C 171.929688 85.476562 168.289062 85.652344 167.402344 88.519531 C 167.402344 88.519531 180.054688 86.011719 187.433594 103.027344 Z M 83.515625 115.125 C 83.515625 115.125 82.695312 115.125 81.34375 115.125 C 82.101562 115.164062 82.832031 115.167969 83.515625 115.125 Z M 62.242188 106.027344 C 56.890625 99.5625 52.101562 99.675781 52.101562 99.675781 L 54.074219 104.316406 C 45.480469 102.0625 42.234375 113.859375 42.234375 113.859375 C 42.234375 113.859375 46.890625 109.550781 53.085938 109.550781 C 59.285156 109.550781 70.273438 115.125 75.0625 115.125 C 77.597656 115.125 79.816406 115.125 81.34375 115.125 C 75.21875 114.808594 67.007812 111.773438 62.242188 106.027344 Z M 83.757812 113.851562 C 83.910156 113.851562 84.0625 113.859375 84.21875 113.859375 C 84.21875 113.859375 84.050781 113.859375 83.757812 113.851562 Z M 83.757812 113.851562 C 83.515625 113.839844 83.183594 113.824219 82.777344 113.789062 C 83.09375 113.824219 83.421875 113.84375 83.757812 113.851562 Z M 76.753906 102.300781 C 79.851562 102.300781 81.261719 105.425781 81.261719 105.425781 C 81.261719 105.425781 84.269531 101.042969 80.414062 97.695312 C 76.847656 94.597656 67.457031 96.851562 69.851562 105.425781 C 71.730469 112.164062 79.523438 113.519531 82.777344 113.789062 C 74.152344 112.878906 73.808594 102.300781 76.753906 102.300781 Z M 89.992188 112.296875 C 87.882812 111.828125 83.515625 112.296875 83.515625 112.296875 C 83.515625 112.296875 88.585938 114.457031 90.980469 115.125 C 92.695312 115.601562 97.628906 115.328125 100.105469 115.183594 C 97.054688 114.898438 91.777344 112.695312 89.992188 112.296875 Z M 101.542969 115.125 C 101.675781 115.085938 101.082031 115.125 100.105469 115.183594 C 100.671875 115.234375 101.171875 115.226562 101.542969 115.125 Z M 106.894531 115.320312 C 104.078125 115.320312 100.417969 118.964844 100.417969 118.964844 C 100.417969 118.964844 108.492188 121.679688 116.472656 115.320312 C 117.035156 114.875 109.714844 115.320312 106.894531 115.320312 Z M 101.542969 112.296875 C 93.9375 105.910156 86.050781 106.027344 86.050781 106.027344 C 86.050781 106.027344 90.699219 109.527344 92.671875 111.359375 C 94.640625 113.191406 101.542969 112.296875 101.542969 112.296875 Z M 99.570312 102.5 C 95.832031 94.066406 98.726562 85.496094 98.726562 85.496094 C 90.136719 87.378906 92.8125 99.246094 92.8125 99.246094 C 90.136719 97.265625 86.050781 99.246094 86.050781 99.246094 C 89.429688 99.105469 96.191406 105.160156 101.964844 110 C 107.742188 114.835938 122.25 113.753906 122.25 113.753906 C 122.25 113.753906 103.308594 110.9375 99.570312 102.5 Z M 120.417969 111.359375 C 114.492188 107.074219 109.574219 103.1875 110.417969 106.941406 C 111.261719 110.695312 120.417969 111.359375 120.417969 111.359375 Z M 152.394531 110.515625 C 152.957031 106.148438 154.808594 102.300781 154.808594 102.300781 C 145.390625 110.882812 151.832031 114.878906 152.394531 110.515625 Z M 152.394531 91.496094 C 152.394531 91.496094 148.308594 88.1875 146.335938 85.96875 C 144.363281 83.75 138.449219 89.949219 152.394531 91.496094 Z M 150.847656 98.257812 C 150.847656 98.257812 145.351562 97.273438 140.984375 101.640625 C 136.617188 106.007812 131.96875 108.121094 127.742188 108.121094 C 123.515625 108.121094 120.558594 100.230469 126.476562 94.597656 C 126.476562 94.597656 122.21875 96.054688 121.546875 103.1875 C 120.875 110.324219 129.714844 111.078125 133.378906 108.964844 C 137.039062 106.851562 142.816406 98.964844 150.847656 98.257812 Z M 172.339844 103.871094 C 170.175781 106.109375 172.863281 108.0625 172.863281 108.0625 C 172.765625 105.910156 175.246094 105.035156 176.078125 106.433594 C 176.757812 107.578125 176.171875 109.894531 173.175781 109.507812 C 170.183594 109.121094 169.152344 102.59375 174.484375 102.5 C 177.765625 102.445312 180.019531 105.105469 181.265625 107.164062 C 177.855469 101.179688 172.960938 99.136719 168.214844 98.101562 C 161.757812 96.699219 157.175781 101.941406 156.613281 106.941406 C 156.050781 111.941406 157.78125 115.789062 161.199219 115.976562 C 164.617188 116.164062 164.753906 114.480469 164.753906 114.480469 C 163.910156 114.480469 161.949219 114.105469 161.949219 111.671875 C 161.949219 109.238281 164.347656 108.1875 166.4375 110.175781 C 168.378906 112.019531 167.75 116.632812 161.667969 116.820312 C 155.582031 117.007812 152.964844 110.269531 154.808594 104.375 C 156.648438 98.476562 167.945312 93.925781 176.359375 99.785156 C 180.722656 102.824219 182.695312 106.890625 183.585938 110.097656 C 182.652344 105.304688 181.082031 102.773438 177.855469 99.601562 C 172.792969 94.625 167.320312 94.863281 161.976562 94.761719 C 161.769531 95.132812 154.648438 96.851562 150.140625 104.035156 C 145.632812 111.21875 144.929688 113.472656 141.6875 114.316406 C 141.6875 114.316406 142.816406 108.402344 142.816406 107.976562 C 142.816406 107.554688 138.027344 119.847656 125.347656 115.320312 C 125.347656 115.320312 128.730469 114.175781 129.574219 112.484375 C 129.574219 112.484375 118.164062 113.894531 115.066406 101.5 L 118.023438 103.46875 C 118.023438 103.46875 115.769531 89.386719 132.53125 94.03125 C 132.53125 94.03125 126.332031 97.554688 126.332031 101.640625 C 126.332031 105.722656 132.816406 106.269531 136.335938 100.644531 C 139.859375 95.019531 146.054688 95.160156 146.054688 95.160156 C 146.054688 95.160156 135.632812 95.046875 134.222656 85.96875 L 136.335938 86.851562 C 136.335938 86.851562 134.644531 76.890625 140.421875 76.890625 C 146.195312 76.890625 145.351562 84.597656 141.125 84.457031 C 141.125 84.457031 145.097656 80.230469 141.125 80.230469 C 137.15625 80.230469 136.039062 95.167969 157.527344 94.039062 C 157.527344 94.039062 157.535156 94.035156 157.539062 94.035156 C 154.757812 92.753906 154.351562 89.976562 155.207031 87.902344 C 156.332031 85.191406 160.917969 85.375 161.382812 88.183594 C 161.851562 90.992188 158.390625 90.710938 158.296875 89.308594 C 158.203125 87.902344 159.140625 87.527344 159.140625 87.527344 C 158.296875 86.5 155.863281 87.0625 155.863281 89.867188 C 155.863281 92.675781 158.203125 93.703125 163.070312 93.703125 C 167.9375 93.703125 172.425781 93.890625 177.667969 98.199219 C 182.425781 102.105469 184.015625 109.164062 184.269531 113.933594 C 184.335938 114.800781 184.3125 115.320312 184.3125 115.320312 C 183.71875 112.765625 182.96875 110.601562 182.09375 108.753906 C 180.320312 105.480469 174.722656 101.398438 172.339844 103.871094 Z M 293.648438 115.125 C 292.292969 115.125 291.476562 115.125 291.476562 115.125 C 292.160156 115.167969 292.890625 115.164062 293.648438 115.125 Z M 320.917969 104.316406 L 322.886719 99.675781 C 322.886719 99.675781 318.097656 99.5625 312.746094 106.027344 C 307.984375 111.773438 299.769531 114.808594 293.648438 115.125 C 295.175781 115.125 297.390625 115.125 299.929688 115.125 C 304.71875 115.125 315.703125 109.550781 321.902344 109.550781 C 328.101562 109.550781 332.753906 113.859375 332.753906 113.859375 C 332.753906 113.859375 329.507812 102.0625 320.917969 104.316406 Z M 291.230469 113.851562 C 291.570312 113.84375 291.894531 113.824219 292.210938 113.789062 C 291.808594 113.824219 291.472656 113.839844 291.230469 113.851562 Z M 291.230469 113.851562 C 290.941406 113.859375 290.773438 113.859375 290.773438 113.859375 C 290.929688 113.859375 291.078125 113.851562 291.230469 113.851562 Z M 305.140625 105.425781 C 307.535156 96.851562 298.144531 94.597656 294.578125 97.695312 C 290.722656 101.042969 293.730469 105.425781 293.730469 105.425781 C 293.730469 105.425781 295.140625 102.300781 298.238281 102.300781 C 301.179688 102.300781 300.839844 112.878906 292.210938 113.789062 C 295.464844 113.519531 303.257812 112.164062 305.140625 105.425781 Z M 273.445312 115.125 C 273.820312 115.226562 274.320312 115.234375 274.886719 115.183594 C 273.910156 115.125 273.3125 115.085938 273.445312 115.125 Z M 285 112.296875 C 283.214844 112.695312 277.933594 114.898438 274.886719 115.183594 C 277.359375 115.328125 282.292969 115.601562 284.011719 115.125 C 286.40625 114.457031 291.476562 112.296875 291.476562 112.296875 C 291.476562 112.296875 287.109375 111.828125 285 112.296875 Z M 258.515625 115.320312 C 266.5 121.679688 274.574219 118.964844 274.574219 118.964844 C 274.574219 118.964844 270.910156 115.320312 268.09375 115.320312 C 265.277344 115.320312 257.957031 114.875 258.515625 115.320312 Z M 282.320312 111.359375 C 284.292969 109.527344 288.941406 106.027344 288.941406 106.027344 C 288.941406 106.027344 281.054688 105.910156 273.445312 112.296875 C 273.445312 112.296875 280.351562 113.191406 282.320312 111.359375 Z M 288.941406 99.246094 C 288.941406 99.246094 284.855469 97.265625 282.179688 99.246094 C 282.179688 99.246094 284.855469 87.378906 276.261719 85.496094 C 276.261719 85.496094 279.160156 94.066406 275.417969 102.5 C 271.679688 110.9375 252.738281 113.753906 252.738281 113.753906 C 252.738281 113.753906 267.25 114.835938 273.023438 110 C 278.800781 105.160156 285.5625 99.105469 288.941406 99.246094 Z M 264.570312 106.941406 C 265.417969 103.1875 260.496094 107.074219 254.570312 111.359375 C 254.570312 111.359375 263.726562 110.695312 264.570312 106.941406 Z M 220.183594 102.300781 C 220.183594 102.300781 222.03125 106.148438 222.597656 110.515625 C 223.160156 114.878906 229.601562 110.882812 220.183594 102.300781 Z M 253.445312 103.1875 C 252.769531 96.054688 248.511719 94.597656 248.511719 94.597656 C 254.429688 100.230469 251.472656 108.121094 247.246094 108.121094 C 243.019531 108.121094 238.371094 106.007812 234.003906 101.640625 C 229.636719 97.273438 224.144531 98.257812 224.144531 98.257812 C 232.175781 98.964844 237.949219 106.851562 241.609375 108.964844 C 245.273438 111.078125 254.117188 110.324219 253.445312 103.1875 Z M 249.640625 115.320312 C 236.964844 119.847656 232.175781 107.554688 232.175781 107.976562 C 232.175781 108.402344 233.300781 114.316406 233.300781 114.316406 C 230.0625 113.472656 229.355469 111.21875 224.847656 104.035156 C 220.34375 96.851562 213.21875 95.132812 213.015625 94.761719 C 207.671875 94.863281 202.199219 94.625 197.132812 99.601562 C 193.90625 102.773438 192.339844 105.304688 191.402344 110.097656 C 192.296875 106.890625 194.269531 102.824219 198.632812 99.785156 C 207.046875 93.925781 218.339844 98.476562 220.183594 104.375 C 222.027344 110.269531 219.40625 117.007812 213.324219 116.820312 C 207.242188 116.632812 206.609375 112.019531 208.550781 110.175781 C 210.640625 108.1875 213.042969 109.238281 213.042969 111.671875 C 213.042969 114.105469 211.078125 114.480469 210.238281 114.480469 C 210.238281 114.480469 210.375 116.164062 213.792969 115.976562 C 217.210938 115.789062 218.9375 111.941406 218.375 106.941406 C 217.816406 101.941406 213.230469 96.699219 206.773438 98.101562 C 202.03125 99.136719 197.136719 101.179688 193.722656 107.164062 C 194.972656 105.105469 197.222656 102.445312 200.503906 102.5 C 205.835938 102.59375 204.808594 109.121094 201.816406 109.507812 C 198.820312 109.894531 198.234375 107.578125 198.910156 106.433594 C 199.742188 105.035156 202.222656 105.910156 202.128906 108.0625 C 202.128906 108.0625 204.8125 106.109375 202.652344 103.871094 C 200.265625 101.398438 194.667969 105.480469 192.898438 108.753906 C 192.019531 110.601562 191.269531 112.765625 190.675781 115.320312 C 190.675781 115.320312 190.65625 114.800781 190.71875 113.933594 C 190.972656 109.164062 192.566406 102.105469 197.320312 98.199219 C 202.5625 93.890625 207.054688 93.703125 211.917969 93.703125 C 216.785156 93.703125 219.125 92.675781 219.125 89.867188 C 219.125 87.0625 216.691406 86.5 215.851562 87.527344 C 215.851562 87.527344 216.785156 87.902344 216.691406 89.308594 C 216.597656 90.710938 213.136719 90.992188 213.605469 88.183594 C 214.074219 85.375 218.65625 85.191406 219.78125 87.902344 C 220.640625 89.976562 220.234375 92.753906 217.453125 94.035156 C 217.453125 94.035156 217.460938 94.039062 217.460938 94.039062 C 238.949219 95.167969 237.835938 80.230469 233.863281 80.230469 C 229.894531 80.230469 233.863281 84.457031 233.863281 84.457031 C 229.636719 84.597656 228.792969 76.890625 234.570312 76.890625 C 240.34375 76.890625 238.652344 86.851562 238.652344 86.851562 L 240.765625 85.96875 C 239.355469 95.046875 228.933594 95.160156 228.933594 95.160156 C 228.933594 95.160156 235.132812 95.019531 238.652344 100.644531 C 242.175781 106.269531 248.65625 105.722656 248.65625 101.640625 C 248.65625 97.554688 242.457031 94.03125 242.457031 94.03125 C 259.21875 89.386719 256.964844 103.46875 256.964844 103.46875 L 259.921875 101.5 C 256.824219 113.894531 245.414062 112.484375 245.414062 112.484375 C 246.257812 114.175781 249.640625 115.320312 249.640625 115.320312 Z M 222.597656 91.496094 C 222.597656 91.496094 226.679688 88.1875 228.652344 85.96875 C 230.625 83.75 236.539062 89.949219 222.597656 91.496094 " fill-opacity="1" fill-rule="nonzero"/></g><g fill="#ffffff" fill-opacity="1"><g transform="translate(43.169441, 200.081778)"><g><path d="M 3.609375 0 L 3.609375 -27.765625 L 15.453125 -27.765625 C 17.160156 -27.765625 18.609375 -27.492188 19.796875 -26.953125 C 20.984375 -26.421875 21.878906 -25.65625 22.484375 -24.65625 C 23.085938 -23.664062 23.390625 -22.492188 23.390625 -21.140625 C 23.390625 -19.910156 23.09375 -18.828125 22.5 -17.890625 C 21.90625 -16.953125 21.050781 -16.195312 19.9375 -15.625 L 19.9375 -15.234375 C 21.6875 -14.773438 23.035156 -13.941406 23.984375 -12.734375 C 24.929688 -11.535156 25.40625 -10.0625 25.40625 -8.3125 C 25.40625 -5.65625 24.601562 -3.601562 23 -2.15625 C 21.40625 -0.71875 19.03125 0 15.875 0 Z M 14.3125 -16.6875 C 16.875 -16.6875 18.15625 -17.835938 18.15625 -20.140625 C 18.15625 -21.316406 17.835938 -22.191406 17.203125 -22.765625 C 16.566406 -23.347656 15.601562 -23.640625 14.3125 -23.640625 L 9.09375 -23.640625 L 9.09375 -16.6875 Z M 15.328125 -4.34375 C 18.347656 -4.34375 19.859375 -5.71875 19.859375 -8.46875 C 19.859375 -11.226562 18.347656 -12.609375 15.328125 -12.609375 L 9.09375 -12.609375 L 9.09375 -4.34375 Z M 15.328125 -4.34375 "/></g></g></g><g fill="#ffffff" fill-opacity="1"><g transform="translate(72.700095, 200.081778)"><g><path d="M 26.640625 0 L 20.875 0 L 18.78125 -6.40625 L 8.140625 -6.40625 L 6.0625 0 L 0.421875 0 L 10 -27.765625 L 17.046875 -27.765625 Z M 13.203125 -21.96875 L 9.625 -11.015625 L 17.265625 -11.015625 L 13.671875 -21.96875 Z M 13.203125 -21.96875 "/></g></g></g><g fill="#ffffff" fill-opacity="1"><g transform="translate(102.135796, 200.081778)"><g><path d="M 3.609375 0 L 3.609375 -27.765625 L 14.75 -27.765625 C 17.625 -27.765625 19.789062 -27.101562 21.25 -25.78125 C 22.71875 -24.457031 23.453125 -22.628906 23.453125 -20.296875 C 23.453125 -18.617188 23.023438 -17.238281 22.171875 -16.15625 C 21.316406 -15.082031 20.039062 -14.257812 18.34375 -13.6875 L 18.34375 -13.296875 C 19.21875 -12.910156 19.921875 -12.34375 20.453125 -11.59375 C 20.992188 -10.851562 21.503906 -9.75 21.984375 -8.28125 L 24.765625 0 L 19.125 0 L 16.40625 -8.296875 C 16.125 -9.128906 15.804688 -9.773438 15.453125 -10.234375 C 15.109375 -10.703125 14.664062 -11.039062 14.125 -11.25 C 13.59375 -11.457031 12.898438 -11.5625 12.046875 -11.5625 L 9.09375 -11.5625 L 9.09375 0 Z M 14.09375 -15.90625 C 16.75 -15.90625 18.078125 -17.148438 18.078125 -19.640625 C 18.078125 -22.160156 16.75 -23.421875 14.09375 -23.421875 L 9.09375 -23.421875 L 9.09375 -15.90625 Z M 14.09375 -15.90625 "/></g></g></g><g fill="#ffffff" fill-opacity="1"><g transform="translate(130.469992, 200.081778)"><g><path d="M 3.609375 0 L 3.609375 -27.765625 L 15.453125 -27.765625 C 17.160156 -27.765625 18.609375 -27.492188 19.796875 -26.953125 C 20.984375 -26.421875 21.878906 -25.65625 22.484375 -24.65625 C 23.085938 -23.664062 23.390625 -22.492188 23.390625 -21.140625 C 23.390625 -19.910156 23.09375 -18.828125 22.5 -17.890625 C 21.90625 -16.953125 21.050781 -16.195312 19.9375 -15.625 L 19.9375 -15.234375 C 21.6875 -14.773438 23.035156 -13.941406 23.984375 -12.734375 C 24.929688 -11.535156 25.40625 -10.0625 25.40625 -8.3125 C 25.40625 -5.65625 24.601562 -3.601562 23 -2.15625 C 21.40625 -0.71875 19.03125 0 15.875 0 Z M 14.3125 -16.6875 C 16.875 -16.6875 18.15625 -17.835938 18.15625 -20.140625 C 18.15625 -21.316406 17.835938 -22.191406 17.203125 -22.765625 C 16.566406 -23.347656 15.601562 -23.640625 14.3125 -23.640625 L 9.09375 -23.640625 L 9.09375 -16.6875 Z M 15.328125 -4.34375 C 18.347656 -4.34375 19.859375 -5.71875 19.859375 -8.46875 C 19.859375 -11.226562 18.347656 -12.609375 15.328125 -12.609375 L 9.09375 -12.609375 L 9.09375 -4.34375 Z M 15.328125 -4.34375 "/></g></g></g><g fill="#ffffff" fill-opacity="1"><g transform="translate(160.000645, 200.081778)"><g><path d="M 9.09375 -12.1875 L 9.09375 -4.59375 L 22.34375 -4.59375 L 22.34375 0 L 3.609375 0 L 3.609375 -27.765625 L 22.046875 -27.765625 L 22.046875 -23.171875 L 9.09375 -23.171875 L 9.09375 -16.671875 L 20.40625 -16.671875 L 20.40625 -12.1875 Z M 9.09375 -12.1875 "/></g></g></g><g fill="#ffffff" fill-opacity="1"><g transform="translate(186.24578, 200.081778)"><g><path d="M 3.609375 0 L 3.609375 -27.765625 L 14.75 -27.765625 C 17.625 -27.765625 19.789062 -27.101562 21.25 -25.78125 C 22.71875 -24.457031 23.453125 -22.628906 23.453125 -20.296875 C 23.453125 -18.617188 23.023438 -17.238281 22.171875 -16.15625 C 21.316406 -15.082031 20.039062 -14.257812 18.34375 -13.6875 L 18.34375 -13.296875 C 19.21875 -12.910156 19.921875 -12.34375 20.453125 -11.59375 C 20.992188 -10.851562 21.503906 -9.75 21.984375 -8.28125 L 24.765625 0 L 19.125 0 L 16.40625 -8.296875 C 16.125 -9.128906 15.804688 -9.773438 15.453125 -10.234375 C 15.109375 -10.703125 14.664062 -11.039062 14.125 -11.25 C 13.59375 -11.457031 12.898438 -11.5625 12.046875 -11.5625 L 9.09375 -11.5625 L 9.09375 0 Z M 14.09375 -15.90625 C 16.75 -15.90625 18.078125 -17.148438 18.078125 -19.640625 C 18.078125 -22.160156 16.75 -23.421875 14.09375 -23.421875 L 9.09375 -23.421875 L 9.09375 -15.90625 Z M 14.09375 -15.90625 "/></g></g></g><g fill="#ffffff" fill-opacity="1"><g transform="translate(214.579976, 200.081778)"><g><path d="M 12.3125 0.40625 C 10.382812 0.40625 8.671875 0.164062 7.171875 -0.3125 C 5.671875 -0.789062 4.421875 -1.414062 3.421875 -2.1875 C 2.421875 -2.957031 1.65625 -3.804688 1.125 -4.734375 L 4.140625 -8.40625 L 4.609375 -8.40625 C 5.453125 -7.164062 6.515625 -6.175781 7.796875 -5.4375 C 9.078125 -4.707031 10.582031 -4.34375 12.3125 -4.34375 C 13.78125 -4.34375 14.882812 -4.648438 15.625 -5.265625 C 16.375 -5.890625 16.75 -6.75 16.75 -7.84375 C 16.75 -8.5 16.628906 -9.046875 16.390625 -9.484375 C 16.148438 -9.929688 15.75 -10.3125 15.1875 -10.625 C 14.632812 -10.945312 13.882812 -11.222656 12.9375 -11.453125 L 9.359375 -12.265625 C 6.867188 -12.835938 5.007812 -13.785156 3.78125 -15.109375 C 2.5625 -16.429688 1.953125 -18.148438 1.953125 -20.265625 C 1.953125 -21.828125 2.34375 -23.203125 3.125 -24.390625 C 3.914062 -25.585938 5.0625 -26.515625 6.5625 -27.171875 C 8.0625 -27.828125 9.851562 -28.15625 11.9375 -28.15625 C 14.082031 -28.15625 15.914062 -27.875 17.4375 -27.3125 C 18.96875 -26.75 20.257812 -25.882812 21.3125 -24.71875 L 18.59375 -21 L 18.109375 -21 C 17.328125 -21.820312 16.429688 -22.4375 15.421875 -22.84375 C 14.410156 -23.257812 13.25 -23.46875 11.9375 -23.46875 C 10.4375 -23.46875 9.289062 -23.203125 8.5 -22.671875 C 7.71875 -22.140625 7.328125 -21.40625 7.328125 -20.46875 C 7.328125 -19.59375 7.601562 -18.894531 8.15625 -18.375 C 8.707031 -17.863281 9.660156 -17.460938 11.015625 -17.171875 L 14.65625 -16.40625 C 17.351562 -15.832031 19.304688 -14.863281 20.515625 -13.5 C 21.734375 -12.144531 22.34375 -10.375 22.34375 -8.1875 C 22.34375 -6.445312 21.96875 -4.9375 21.21875 -3.65625 C 20.476562 -2.375 19.351562 -1.375 17.84375 -0.65625 C 16.34375 0.0507812 14.5 0.40625 12.3125 0.40625 Z M 12.3125 0.40625 "/></g></g></g><g fill="#ffffff" fill-opacity="1"><g transform="translate(240.806102, 200.081778)"><g><path d="M 21.53125 -17.3125 L 21.53125 -27.765625 L 27 -27.765625 L 27 0 L 21.53125 0 L 21.53125 -12.640625 L 9.09375 -12.640625 L 9.09375 0 L 3.609375 0 L 3.609375 -27.765625 L 9.09375 -27.765625 L 9.09375 -17.3125 Z M 21.53125 -17.3125 "/></g></g></g><g fill="#ffffff" fill-opacity="1"><g transform="translate(273.812211, 200.081778)"><g><path d="M 15.140625 0.40625 C 12.585938 0.40625 10.335938 -0.113281 8.390625 -1.15625 C 6.453125 -2.195312 4.929688 -3.78125 3.828125 -5.90625 C 2.734375 -8.039062 2.1875 -10.695312 2.1875 -13.875 C 2.1875 -17.050781 2.734375 -19.707031 3.828125 -21.84375 C 4.929688 -23.976562 6.453125 -25.5625 8.390625 -26.59375 C 10.335938 -27.632812 12.585938 -28.15625 15.140625 -28.15625 C 17.679688 -28.15625 19.921875 -27.640625 21.859375 -26.609375 C 23.796875 -25.578125 25.3125 -23.988281 26.40625 -21.84375 C 27.5 -19.707031 28.046875 -17.050781 28.046875 -13.875 C 28.046875 -10.695312 27.5 -8.039062 26.40625 -5.90625 C 25.3125 -3.769531 23.796875 -2.179688 21.859375 -1.140625 C 19.921875 -0.109375 17.679688 0.40625 15.140625 0.40625 Z M 15.140625 -4.375 C 17.492188 -4.375 19.289062 -5.128906 20.53125 -6.640625 C 21.769531 -8.148438 22.390625 -10.5625 22.390625 -13.875 C 22.390625 -17.195312 21.769531 -19.617188 20.53125 -21.140625 C 19.289062 -22.660156 17.492188 -23.421875 15.140625 -23.421875 C 12.765625 -23.421875 10.953125 -22.660156 9.703125 -21.140625 C 8.460938 -19.617188 7.84375 -17.195312 7.84375 -13.875 C 7.84375 -10.5625 8.460938 -8.148438 9.703125 -6.640625 C 10.953125 -5.128906 12.765625 -4.375 15.140625 -4.375 Z M 15.140625 -4.375 "/></g></g></g><g fill="#ffffff" fill-opacity="1"><g transform="translate(306.438467, 200.081778)"><g><path d="M 14.34375 -27.765625 C 16.320312 -27.765625 18.015625 -27.398438 19.421875 -26.671875 C 20.835938 -25.941406 21.90625 -24.921875 22.625 -23.609375 C 23.351562 -22.296875 23.71875 -20.773438 23.71875 -19.046875 C 23.71875 -17.304688 23.351562 -15.785156 22.625 -14.484375 C 21.90625 -13.179688 20.835938 -12.164062 19.421875 -11.4375 C 18.015625 -10.707031 16.320312 -10.34375 14.34375 -10.34375 L 9.09375 -10.34375 L 9.09375 0 L 3.609375 0 L 3.609375 -27.765625 Z M 13.609375 -14.703125 C 16.660156 -14.703125 18.1875 -16.148438 18.1875 -19.046875 C 18.1875 -21.960938 16.660156 -23.421875 13.609375 -23.421875 L 9.09375 -23.421875 L 9.09375 -14.703125 Z M 13.609375 -14.703125 "/></g></g></g></svg>